<svg xmlns="http://www.w3.org/2000/svg" viewBox="0 0 256 256" role="img" aria-label="Royal Imperial">
  <defs>
    <linearGradient id="gold" x1="40" y1="22" x2="210" y2="225" gradientUnits="userSpaceOnUse">
      <stop offset="0" stop-color="#fff2bd"/>
      <stop offset="0.28" stop-color="#d7b77a"/>
      <stop offset="0.62" stop-color="#d4af37"/>
      <stop offset="1" stop-color="#9f7a23"/>
    </linearGradient>
  </defs>
  <path d="M128 22l9.5 17.5L155 49l-17.5 9.5L128 76l-9.5-17.5L101 49l17.5-9.5L128 22z" fill="url(#gold)"/>
  <path d="M128 74l35 58h-24l-11-19-11 19H93l35-58z" fill="url(#gold)"/>
  <path d="M43 198V75l78 82-17 17-36-38v62H43z" fill="url(#gold)"/>
  <path d="M213 198V75l-78 82 17 17 36-38v62h25z" fill="url(#gold)"/>
  <path d="M104 198v-55l24 25 24-25v55h-24v-22l-24 22z" fill="url(#gold)" opacity=".92"/>
</svg>
