<svg xmlns="http://www.w3.org/2000/svg" viewBox="0 0 420 120" role="img" aria-label="Royal Imperial">
  <defs>
    <linearGradient id="gold" x1="20" y1="8" x2="110" y2="106" gradientUnits="userSpaceOnUse"><stop stop-color="#fff2bd"/><stop offset=".45" stop-color="#d7b77a"/><stop offset="1" stop-color="#9f7a23"/></linearGradient>
  </defs>
  <g transform="translate(10,8) scale(.42)">
    <path d="M128 22l9.5 17.5L155 49l-17.5 9.5L128 76l-9.5-17.5L101 49l17.5-9.5L128 22z" fill="url(#gold)"/>
    <path d="M128 74l35 58h-24l-11-19-11 19H93l35-58z" fill="url(#gold)"/>
    <path d="M43 198V75l78 82-17 17-36-38v62H43z" fill="url(#gold)"/>
    <path d="M213 198V75l-78 82 17 17 36-38v62h25z" fill="url(#gold)"/>
    <path d="M104 198v-55l24 25 24-25v55h-24v-22l-24 22z" fill="url(#gold)" opacity=".92"/>
  </g>
  <text x="125" y="52" fill="#32415f" font-size="29" font-family="Georgia, 'Times New Roman', serif" letter-spacing="5">ROYAL</text>
  <text x="126" y="83" fill="#7b6ad8" font-size="16" font-family="Arial, sans-serif" letter-spacing="7">IMPERIAL AI</text>
</svg>
